<?xml version="1.0" standalone="no"?>
<!DOCTYPE svg PUBLIC "-//W3C//DTD SVG 20010904//EN"
 "http://www.w3.org/TR/2001/REC-SVG-20010904/DTD/svg10.dtd">
<svg version="1.0" xmlns="http://www.w3.org/2000/svg"
 width="1280.000000pt" height="1280.000000pt" viewBox="0 0 1280.000000 1280.000000"
 preserveAspectRatio="xMidYMid meet">
<metadata>
Created by potrace 1.15, written by Peter Selinger 2001-2017
</metadata>
<g transform="translate(0.000000,1280.000000) scale(0.100000,-0.100000)"
fill="#BBB" stroke="none">
<path d="M5507 11880 c-353 -42 -679 -192 -940 -431 -43 -39 -559 -572 -1147
-1184 l-1069 -1112 -133 -11 c-156 -14 -249 -32 -373 -73 -236 -79 -460 -229
-627 -423 -167 -193 -268 -427 -298 -692 -8 -71 -10 -772 -8 -2529 l4 -2430
22 -97 c64 -281 196 -508 409 -708 199 -186 427 -300 687 -345 57 -9 203 -20
345 -25 135 -5 275 -14 310 -20 36 -6 792 -193 1680 -415 1640 -409 1774 -440
2051 -465 158 -14 2088 -14 2218 1 346 38 648 166 917 391 307 255 515 596
589 969 40 197 40 481 1 684 -8 44 -15 81 -15 81 0 1 24 20 54 43 307 231 531
567 625 939 69 269 67 601 -4 870 -31 115 -93 275 -143 367 l-38 69 64 96
c120 179 207 386 250 595 57 275 46 618 -28 885 -67 240 -204 489 -367 669
-29 33 -53 63 -53 68 0 4 13 40 28 78 84 207 117 411 109 680 -11 349 -93 614
-276 886 -294 438 -747 716 -1247 764 l-71 7 -6 182 c-6 201 -25 313 -82 482
-171 515 -637 959 -1152 1100 -220 60 -163 57 -1233 59 -542 2 -1016 -1 -1053
-5z m2004 -937 c281 -79 500 -300 575 -579 25 -94 25 -302 0 -393 -80 -292
-316 -513 -616 -576 -59 -12 -183 -15 -739 -15 l-669 0 -106 -114 c-58 -63
-106 -117 -106 -120 0 -3 697 -6 1549 -6 1055 0 1574 -3 1627 -11 95 -13 213
-55 297 -105 85 -52 224 -193 276 -281 134 -227 146 -512 31 -748 -95 -194
-282 -350 -500 -416 -72 -22 -93 -23 -492 -27 l-418 -3 0 -119 0 -119 538 -3
c510 -4 541 -5 613 -25 153 -43 281 -116 397 -227 199 -190 294 -426 279 -694
-20 -352 -210 -628 -541 -783 -173 -81 -185 -82 -768 -86 l-518 -4 0 -119 0
-119 538 -3 c531 -3 538 -4 607 -27 175 -58 330 -173 436 -324 152 -217 180
-520 69 -763 -94 -208 -282 -365 -527 -441 l-88 -27 -517 -4 -518 -3 0 -120 0
-119 173 0 c141 0 189 -4 253 -20 268 -68 492 -281 576 -550 20 -64 23 -96 23
-220 0 -165 -14 -231 -70 -347 -100 -203 -295 -360 -530 -425 -80 -22 -84 -22
-1020 -26 -954 -3 -1146 2 -1317 34 -44 8 -813 197 -1711 420 -898 223 -1675
413 -1727 424 -129 26 -303 40 -491 40 -128 0 -169 4 -221 20 -162 50 -291
197 -318 362 -14 88 -14 4619 1 4707 22 140 122 272 254 337 67 33 84 37 202
45 290 20 456 72 623 196 29 21 521 529 1093 1128 572 600 1077 1127 1123
1172 140 137 301 220 470 242 38 5 464 8 949 7 868 -2 881 -2 956 -23z"/>
</g>
</svg>
